<svg width="50" height="50" viewBox="0 0 50 50" fill="none" xmlns="http://www.w3.org/2000/svg">
<circle cx="25" cy="25" r="25" fill="#FFCA42"/>
<path d="M19.538 33.3047C18.6473 33.3047 17.8622 33.1055 17.1825 32.707C16.5028 32.3008 15.9325 31.7383 15.4716 31.0195C15.0184 30.293 14.6747 29.4258 14.4403 28.418C14.2059 27.4102 14.0887 26.3008 14.0887 25.0898C14.0887 24.4492 14.1395 23.8008 14.2411 23.1445C14.3505 22.4805 14.5067 21.8438 14.7098 21.2344C14.913 20.6172 15.1669 20.043 15.4716 19.5117C15.7841 18.9727 16.1395 18.5078 16.538 18.1172C16.9442 17.7188 17.3973 17.4062 17.8973 17.1797C18.3973 16.9453 18.9442 16.8281 19.538 16.8281C20.1317 16.8281 20.6747 16.9414 21.1669 17.168C21.6669 17.3945 22.1122 17.707 22.5028 18.1055C22.8934 18.5039 23.2333 18.9727 23.5223 19.5117C23.8192 20.043 24.0614 20.6172 24.2489 21.2344C24.4442 21.8438 24.5887 22.4805 24.6825 23.1445C24.7841 23.8008 24.8348 24.4531 24.8348 25.1016C24.8348 26.3125 24.7255 27.4219 24.5067 28.4297C24.288 29.4375 23.9559 30.3047 23.5106 31.0312C23.0731 31.75 22.5223 32.3086 21.8583 32.707C21.202 33.1055 20.4286 33.3047 19.538 33.3047ZM16.8544 25.1016C16.8544 25.7109 16.8661 26.3164 16.8895 26.918C16.913 27.5117 16.9598 28.082 17.0302 28.6289C17.1005 29.168 17.1942 29.668 17.3114 30.1289C17.4364 30.5898 17.5966 30.9883 17.7919 31.3242C17.995 31.6602 18.2372 31.9258 18.5184 32.1211C18.8075 32.3086 19.1473 32.4023 19.538 32.4023C19.9286 32.4023 20.2645 32.3047 20.5458 32.1094C20.827 31.9141 21.0614 31.6484 21.2489 31.3125C21.4364 30.9688 21.5848 30.5625 21.6942 30.0938C21.8036 29.625 21.8856 29.1211 21.9403 28.582C21.995 28.0352 22.0302 27.4648 22.0458 26.8711C22.0614 26.2773 22.0692 25.6797 22.0692 25.0781C22.0692 24.5859 22.0536 24.0625 22.0223 23.5078C21.9989 22.9453 21.952 22.3945 21.8817 21.8555C21.8192 21.3086 21.7294 20.7891 21.6122 20.2969C21.495 19.7969 21.3427 19.3594 21.1552 18.9844C20.9677 18.6016 20.7411 18.2969 20.4755 18.0703C20.2098 17.8438 19.9012 17.7305 19.5497 17.7305C19.1591 17.7305 18.8192 17.8438 18.5302 18.0703C18.2411 18.2969 17.995 18.6016 17.7919 18.9844C17.5966 19.3672 17.4364 19.8086 17.3114 20.3086C17.1864 20.8086 17.0887 21.332 17.0184 21.8789C16.9559 22.4258 16.913 22.9766 16.8895 23.5312C16.8661 24.0859 16.8544 24.6094 16.8544 25.1016ZM28.2745 33C28.0323 33 27.88 32.9727 27.8175 32.918C27.755 32.8633 27.7238 32.8008 27.7238 32.7305V32.1094C27.7238 32.0469 27.7511 31.9883 27.8058 31.9336C27.8683 31.8789 28.0128 31.8477 28.2394 31.8398C28.4034 31.8398 28.5988 31.8398 28.8253 31.8398C29.0597 31.832 29.2902 31.8242 29.5167 31.8164C29.7433 31.8008 29.9464 31.7773 30.1261 31.7461C30.3136 31.707 30.4425 31.6562 30.5128 31.5938V19.7461C30.255 19.918 30.0323 20.0625 29.8448 20.1797C29.6652 20.2969 29.4933 20.4023 29.3292 20.4961C29.1652 20.582 29.0011 20.668 28.837 20.7539C28.673 20.8398 28.4777 20.9414 28.2511 21.0586C28.212 21.082 28.1417 21.1172 28.0402 21.1641C27.9386 21.2031 27.8566 21.2227 27.7941 21.2227C27.7238 21.2227 27.6652 21.1836 27.6183 21.1055C27.5792 21.0195 27.5011 20.8867 27.3839 20.707C27.3761 20.6914 27.3722 20.6719 27.3722 20.6484C27.3722 20.6172 27.3917 20.5898 27.4308 20.5664C27.4698 20.5352 27.5402 20.4844 27.6417 20.4141C27.8761 20.2656 28.1456 20.0664 28.4503 19.8164C28.755 19.5664 29.0753 19.2852 29.4113 18.9727C29.755 18.6602 30.1027 18.3242 30.4542 17.9648C30.8058 17.5977 31.1417 17.2227 31.462 16.8398H32.3527C32.5011 16.8398 32.6183 16.8477 32.7042 16.8633C32.798 16.8711 32.8683 16.8906 32.9152 16.9219C32.962 16.9453 32.9894 16.9805 32.9972 17.0273C33.0128 17.0742 33.0206 17.1367 33.0206 17.2148V30.6328C33.0206 30.7422 33.0206 30.8555 33.0206 30.9727C33.0284 31.082 33.0323 31.1836 33.0323 31.2773C33.0402 31.3711 33.048 31.4492 33.0558 31.5117C33.0714 31.5742 33.087 31.6055 33.1027 31.6055C33.1964 31.668 33.3097 31.7148 33.4425 31.7461C33.5831 31.7773 33.7316 31.8008 33.8878 31.8164C34.0519 31.8242 34.2198 31.832 34.3917 31.8398C34.5714 31.8398 34.7472 31.8398 34.9191 31.8398C35.1613 31.8398 35.3136 31.8711 35.3761 31.9336C35.4386 31.9961 35.4698 32.0547 35.4698 32.1094V32.7305C35.4698 32.7852 35.4386 32.8438 35.3761 32.9062C35.3136 32.9688 35.1613 33 34.9191 33H28.2745Z" fill="#1B3764"/>
</svg>
