<svg width="50" height="50" viewBox="0 0 50 50" fill="none" xmlns="http://www.w3.org/2000/svg">
<circle cx="25" cy="25" r="25" fill="#FFCA42"/>
<path d="M19.538 33.3047C18.6473 33.3047 17.8622 33.1055 17.1825 32.707C16.5028 32.3008 15.9325 31.7383 15.4716 31.0195C15.0184 30.293 14.6747 29.4258 14.4403 28.418C14.2059 27.4102 14.0887 26.3008 14.0887 25.0898C14.0887 24.4492 14.1395 23.8008 14.2411 23.1445C14.3505 22.4805 14.5067 21.8438 14.7098 21.2344C14.913 20.6172 15.1669 20.043 15.4716 19.5117C15.7841 18.9727 16.1395 18.5078 16.538 18.1172C16.9442 17.7188 17.3973 17.4062 17.8973 17.1797C18.3973 16.9453 18.9442 16.8281 19.538 16.8281C20.1317 16.8281 20.6747 16.9414 21.1669 17.168C21.6669 17.3945 22.1122 17.707 22.5028 18.1055C22.8934 18.5039 23.2333 18.9727 23.5223 19.5117C23.8192 20.043 24.0614 20.6172 24.2489 21.2344C24.4442 21.8438 24.5887 22.4805 24.6825 23.1445C24.7841 23.8008 24.8348 24.4531 24.8348 25.1016C24.8348 26.3125 24.7255 27.4219 24.5067 28.4297C24.288 29.4375 23.9559 30.3047 23.5106 31.0312C23.0731 31.75 22.5223 32.3086 21.8583 32.707C21.202 33.1055 20.4286 33.3047 19.538 33.3047ZM16.8544 25.1016C16.8544 25.7109 16.8661 26.3164 16.8895 26.918C16.913 27.5117 16.9598 28.082 17.0302 28.6289C17.1005 29.168 17.1942 29.668 17.3114 30.1289C17.4364 30.5898 17.5966 30.9883 17.7919 31.3242C17.995 31.6602 18.2372 31.9258 18.5184 32.1211C18.8075 32.3086 19.1473 32.4023 19.538 32.4023C19.9286 32.4023 20.2645 32.3047 20.5458 32.1094C20.827 31.9141 21.0614 31.6484 21.2489 31.3125C21.4364 30.9688 21.5848 30.5625 21.6942 30.0938C21.8036 29.625 21.8856 29.1211 21.9403 28.582C21.995 28.0352 22.0302 27.4648 22.0458 26.8711C22.0614 26.2773 22.0692 25.6797 22.0692 25.0781C22.0692 24.5859 22.0536 24.0625 22.0223 23.5078C21.9989 22.9453 21.952 22.3945 21.8817 21.8555C21.8192 21.3086 21.7294 20.7891 21.6122 20.2969C21.495 19.7969 21.3427 19.3594 21.1552 18.9844C20.9677 18.6016 20.7411 18.2969 20.4755 18.0703C20.2098 17.8438 19.9012 17.7305 19.5497 17.7305C19.1591 17.7305 18.8192 17.8438 18.5302 18.0703C18.2411 18.2969 17.995 18.6016 17.7919 18.9844C17.5966 19.3672 17.4364 19.8086 17.3114 20.3086C17.1864 20.8086 17.0887 21.332 17.0184 21.8789C16.9559 22.4258 16.913 22.9766 16.8895 23.5312C16.8661 24.0859 16.8544 24.6094 16.8544 25.1016ZM26.5519 33C26.4191 33 26.3175 32.9961 26.2472 32.9883C26.1847 32.9805 26.1339 32.9609 26.0948 32.9297C26.0636 32.8984 26.0441 32.8516 26.0363 32.7891C26.0363 32.7266 26.0363 32.6406 26.0363 32.5312C26.0363 32.3984 26.0831 32.2695 26.1769 32.1445C26.2706 32.0195 26.3839 31.8789 26.5167 31.7227C26.8917 31.2773 27.298 30.832 27.7355 30.3867C28.173 29.9414 28.6144 29.4961 29.0597 29.0508C29.6534 28.457 30.2238 27.8594 30.7706 27.2578C31.3175 26.6562 31.798 26.0586 32.212 25.4648C32.6339 24.8711 32.9659 24.2852 33.2081 23.707C33.4581 23.1211 33.5831 22.5469 33.5831 21.9844C33.5831 21.5625 33.505 21.1484 33.3488 20.7422C33.2003 20.3281 32.9972 19.9609 32.7394 19.6406C32.4816 19.3203 32.1808 19.0625 31.837 18.8672C31.5011 18.6719 31.1456 18.5742 30.7706 18.5742C30.3644 18.5742 29.9816 18.6523 29.6222 18.8086C29.2706 18.9648 28.9503 19.1758 28.6613 19.4414C28.3722 19.6992 28.1261 20 27.923 20.3438C27.7277 20.6797 27.587 21.0273 27.5011 21.3867C27.4777 21.4727 27.4581 21.5547 27.4425 21.6328C27.4269 21.7031 27.3995 21.7656 27.3605 21.8203C27.3214 21.8672 27.2589 21.9062 27.173 21.9375C27.087 21.9688 26.9698 21.9844 26.8214 21.9844H26.7159C26.6066 21.9844 26.5206 21.9727 26.4581 21.9492C26.4034 21.918 26.3761 21.8477 26.3761 21.7383C26.3761 21.6992 26.3917 21.5547 26.423 21.3047C26.462 21.0547 26.5245 20.7656 26.6105 20.4375C26.7042 20.1094 26.8253 19.7734 26.9738 19.4297C27.13 19.0781 27.3253 18.7852 27.5597 18.5508H27.548C27.8683 18.2227 28.1808 17.9492 28.4855 17.7305C28.798 17.5117 29.1105 17.3359 29.423 17.2031C29.7433 17.0703 30.0675 16.9766 30.3956 16.9219C30.7316 16.8594 31.087 16.8281 31.462 16.8281C32.2198 16.8281 32.9073 16.9492 33.5245 17.1914C34.1495 17.4336 34.6808 17.7695 35.1183 18.1992C35.5636 18.6211 35.9034 19.1211 36.1378 19.6992C36.38 20.2773 36.5011 20.9023 36.5011 21.5742C36.5011 22.0586 36.3917 22.543 36.173 23.0273C35.9542 23.5039 35.6456 23.9922 35.2472 24.4922C34.8566 24.9922 34.3839 25.5039 33.8292 26.0273C33.2823 26.543 32.6769 27.0859 32.0128 27.6562C31.9425 27.7109 31.8292 27.8125 31.673 27.9609C31.5167 28.1094 31.3331 28.2852 31.1222 28.4883C30.9191 28.6836 30.7003 28.8984 30.4659 29.1328C30.2316 29.3594 30.005 29.582 29.7863 29.8008C29.5753 30.0195 29.38 30.2227 29.2003 30.4102C29.0206 30.5977 28.8839 30.75 28.7902 30.8672H35.1534C35.3253 30.8672 35.4659 30.8438 35.5753 30.7969C35.6847 30.7422 35.7784 30.6523 35.8566 30.5273C35.9425 30.3945 36.0206 30.2188 36.0909 30C36.1613 29.7812 36.2394 29.5078 36.3253 29.1797H37.087L36.548 32.4844C36.5245 32.5938 36.4581 32.707 36.3488 32.8242C36.2394 32.9414 36.048 33 35.7745 33H26.5519Z" fill="#1B3764"/>
</svg>
