<svg width="50" height="50" viewBox="0 0 50 50" fill="none" xmlns="http://www.w3.org/2000/svg">
<circle cx="25" cy="25" r="25" fill="#FFCA42"/>
<path d="M19.538 33.3047C18.6473 33.3047 17.8622 33.1055 17.1825 32.707C16.5028 32.3008 15.9325 31.7383 15.4716 31.0195C15.0184 30.293 14.6747 29.4258 14.4403 28.418C14.2059 27.4102 14.0887 26.3008 14.0887 25.0898C14.0887 24.4492 14.1395 23.8008 14.2411 23.1445C14.3505 22.4805 14.5067 21.8438 14.7098 21.2344C14.913 20.6172 15.1669 20.043 15.4716 19.5117C15.7841 18.9727 16.1395 18.5078 16.538 18.1172C16.9442 17.7188 17.3973 17.4062 17.8973 17.1797C18.3973 16.9453 18.9442 16.8281 19.538 16.8281C20.1317 16.8281 20.6747 16.9414 21.1669 17.168C21.6669 17.3945 22.1122 17.707 22.5028 18.1055C22.8934 18.5039 23.2333 18.9727 23.5223 19.5117C23.8192 20.043 24.0614 20.6172 24.2489 21.2344C24.4442 21.8438 24.5887 22.4805 24.6825 23.1445C24.7841 23.8008 24.8348 24.4531 24.8348 25.1016C24.8348 26.3125 24.7255 27.4219 24.5067 28.4297C24.288 29.4375 23.9559 30.3047 23.5106 31.0312C23.0731 31.75 22.5223 32.3086 21.8583 32.707C21.202 33.1055 20.4286 33.3047 19.538 33.3047ZM16.8544 25.1016C16.8544 25.7109 16.8661 26.3164 16.8895 26.918C16.913 27.5117 16.9598 28.082 17.0302 28.6289C17.1005 29.168 17.1942 29.668 17.3114 30.1289C17.4364 30.5898 17.5966 30.9883 17.7919 31.3242C17.995 31.6602 18.2372 31.9258 18.5184 32.1211C18.8075 32.3086 19.1473 32.4023 19.538 32.4023C19.9286 32.4023 20.2645 32.3047 20.5458 32.1094C20.827 31.9141 21.0614 31.6484 21.2489 31.3125C21.4364 30.9688 21.5848 30.5625 21.6942 30.0938C21.8036 29.625 21.8856 29.1211 21.9403 28.582C21.995 28.0352 22.0302 27.4648 22.0458 26.8711C22.0614 26.2773 22.0692 25.6797 22.0692 25.0781C22.0692 24.5859 22.0536 24.0625 22.0223 23.5078C21.9989 22.9453 21.952 22.3945 21.8817 21.8555C21.8192 21.3086 21.7294 20.7891 21.6122 20.2969C21.495 19.7969 21.3427 19.3594 21.1552 18.9844C20.9677 18.6016 20.7411 18.2969 20.4755 18.0703C20.2098 17.8438 19.9012 17.7305 19.5497 17.7305C19.1591 17.7305 18.8192 17.8438 18.5302 18.0703C18.2411 18.2969 17.995 18.6016 17.7919 18.9844C17.5966 19.3672 17.4364 19.8086 17.3114 20.3086C17.1864 20.8086 17.0887 21.332 17.0184 21.8789C16.9559 22.4258 16.913 22.9766 16.8895 23.5312C16.8661 24.0859 16.8544 24.6094 16.8544 25.1016ZM30.3605 33.3047C30.1183 33.3047 29.8409 33.2969 29.5284 33.2812C29.2159 33.2734 28.8956 33.2461 28.5675 33.1992C28.2394 33.1523 27.9191 33.0859 27.6066 33C27.2941 32.9219 27.0128 32.8164 26.7628 32.6836C26.5206 32.543 26.3253 32.3711 26.1769 32.168C26.0284 31.9648 25.9542 31.7227 25.9542 31.4414C25.9542 31.2695 25.9933 31.1172 26.0714 30.9844C26.1495 30.8516 26.255 30.7422 26.3878 30.6562C26.5206 30.5703 26.6691 30.5039 26.8331 30.457C27.005 30.4102 27.1847 30.3867 27.3722 30.3867C27.5909 30.3867 27.7941 30.4336 27.9816 30.5273C28.1769 30.6211 28.3605 30.7383 28.5323 30.8789C28.712 31.0117 28.8878 31.1602 29.0597 31.3242C29.2316 31.4805 29.4113 31.6289 29.5988 31.7695C29.7863 31.9023 29.9855 32.0156 30.1964 32.1094C30.4073 32.2031 30.6378 32.25 30.8878 32.25C31.3488 32.2109 31.755 32.0508 32.1066 31.7695C32.4581 31.4883 32.7511 31.1406 32.9855 30.7266C33.2198 30.3047 33.3956 29.8477 33.5128 29.3555C33.63 28.8555 33.6886 28.3711 33.6886 27.9023C33.6886 27.3242 33.6222 26.832 33.4894 26.4258C33.3566 26.0195 33.1886 25.6875 32.9855 25.4297C32.7902 25.1719 32.5714 24.9844 32.3292 24.8672C32.087 24.7422 31.8566 24.6797 31.6378 24.6797C31.4581 24.6797 31.3019 24.6992 31.1691 24.7383C31.0363 24.7773 30.9191 24.8242 30.8175 24.8789C30.7159 24.9258 30.63 24.9805 30.5597 25.043C30.4894 25.0977 30.423 25.1445 30.3605 25.1836C30.3058 25.2227 30.2472 25.2539 30.1847 25.2773C30.1222 25.3008 30.0245 25.3125 29.8917 25.3125C29.7511 25.3125 29.6378 25.2617 29.5519 25.1602C29.4738 25.0508 29.4347 24.9531 29.4347 24.8672C29.4347 24.8203 29.4816 24.7422 29.5753 24.6328C29.6769 24.5156 29.7706 24.418 29.8566 24.3398C30.1378 24.0898 30.4308 23.8086 30.7355 23.4961C31.048 23.1836 31.3292 22.8555 31.5792 22.5117C31.8292 22.168 32.0363 21.8164 32.2003 21.457C32.3644 21.0977 32.4464 20.7422 32.4464 20.3906C32.4464 20.125 32.3917 19.8711 32.2823 19.6289C32.1808 19.3789 32.0402 19.1562 31.8605 18.9609C31.6886 18.7656 31.4894 18.6094 31.2628 18.4922C31.0441 18.375 30.8175 18.3164 30.5831 18.3164C30.1378 18.3164 29.7472 18.3945 29.4113 18.5508C29.0753 18.6992 28.7863 18.8867 28.5441 19.1133C28.3019 19.3398 28.0988 19.582 27.9347 19.8398C27.7706 20.0898 27.6339 20.3164 27.5245 20.5195C27.4777 20.6055 27.423 20.6602 27.3605 20.6836C27.3058 20.707 27.2316 20.7188 27.1378 20.7188C27.0988 20.7188 27.048 20.7109 26.9855 20.6953C26.9308 20.6797 26.8761 20.6562 26.8214 20.625C26.7667 20.5938 26.7198 20.5547 26.6808 20.5078C26.6417 20.4609 26.6222 20.4062 26.6222 20.3438C26.6222 20.3516 26.6261 20.3398 26.6339 20.3086C26.6495 20.2773 26.6652 20.2422 26.6808 20.2031C26.6964 20.1641 26.7159 20.1172 26.7394 20.0625C26.9347 19.5938 27.1886 19.1602 27.5011 18.7617C27.8214 18.3633 28.173 18.0234 28.5558 17.7422C28.9386 17.4531 29.3448 17.2305 29.7745 17.0742C30.2042 16.9102 30.6339 16.8281 31.0636 16.8281C31.6808 16.8281 32.2394 16.8906 32.7394 17.0156C33.2394 17.1406 33.6691 17.3242 34.0284 17.5664C34.3878 17.8086 34.6652 18.1094 34.8605 18.4688C35.0558 18.8203 35.1534 19.2266 35.1534 19.6875C35.1534 20.0391 35.0792 20.375 34.9308 20.6953C34.7902 21.0156 34.6027 21.3242 34.3683 21.6211C34.1417 21.9102 33.88 22.1836 33.5831 22.4414C33.2941 22.6992 32.9972 22.9336 32.6925 23.1445C33.38 23.2148 33.9698 23.3789 34.462 23.6367C34.9542 23.8945 35.3566 24.2188 35.6691 24.6094C35.9894 24.9922 36.2238 25.4258 36.3722 25.9102C36.5206 26.3945 36.5948 26.8945 36.5948 27.4102C36.5948 27.9883 36.5011 28.5391 36.3136 29.0625C36.1261 29.5781 35.8761 30.0547 35.5636 30.4922C35.2511 30.9219 34.8839 31.3125 34.462 31.6641C34.048 32.0078 33.6105 32.3047 33.1495 32.5547C32.6886 32.7969 32.2159 32.9805 31.7316 33.1055C31.255 33.2383 30.798 33.3047 30.3605 33.3047Z" fill="#1B3764"/>
</svg>
