<svg width="50" height="50" viewBox="0 0 50 50" fill="none" xmlns="http://www.w3.org/2000/svg">
<circle cx="25" cy="25" r="25" fill="#FFCA42"/>
<path d="M19.538 33.3047C18.6473 33.3047 17.8622 33.1055 17.1825 32.707C16.5028 32.3008 15.9325 31.7383 15.4716 31.0195C15.0184 30.293 14.6747 29.4258 14.4403 28.418C14.2059 27.4102 14.0887 26.3008 14.0887 25.0898C14.0887 24.4492 14.1395 23.8008 14.2411 23.1445C14.3505 22.4805 14.5067 21.8438 14.7098 21.2344C14.913 20.6172 15.1669 20.043 15.4716 19.5117C15.7841 18.9727 16.1395 18.5078 16.538 18.1172C16.9442 17.7188 17.3973 17.4062 17.8973 17.1797C18.3973 16.9453 18.9442 16.8281 19.538 16.8281C20.1317 16.8281 20.6747 16.9414 21.1669 17.168C21.6669 17.3945 22.1122 17.707 22.5028 18.1055C22.8934 18.5039 23.2333 18.9727 23.5223 19.5117C23.8192 20.043 24.0614 20.6172 24.2489 21.2344C24.4442 21.8438 24.5887 22.4805 24.6825 23.1445C24.7841 23.8008 24.8348 24.4531 24.8348 25.1016C24.8348 26.3125 24.7255 27.4219 24.5067 28.4297C24.288 29.4375 23.9559 30.3047 23.5106 31.0312C23.0731 31.75 22.5223 32.3086 21.8583 32.707C21.202 33.1055 20.4286 33.3047 19.538 33.3047ZM16.8544 25.1016C16.8544 25.7109 16.8661 26.3164 16.8895 26.918C16.913 27.5117 16.9598 28.082 17.0302 28.6289C17.1005 29.168 17.1942 29.668 17.3114 30.1289C17.4364 30.5898 17.5966 30.9883 17.7919 31.3242C17.995 31.6602 18.2372 31.9258 18.5184 32.1211C18.8075 32.3086 19.1473 32.4023 19.538 32.4023C19.9286 32.4023 20.2645 32.3047 20.5458 32.1094C20.827 31.9141 21.0614 31.6484 21.2489 31.3125C21.4364 30.9688 21.5848 30.5625 21.6942 30.0938C21.8036 29.625 21.8856 29.1211 21.9403 28.582C21.995 28.0352 22.0302 27.4648 22.0458 26.8711C22.0614 26.2773 22.0692 25.6797 22.0692 25.0781C22.0692 24.5859 22.0536 24.0625 22.0223 23.5078C21.9989 22.9453 21.952 22.3945 21.8817 21.8555C21.8192 21.3086 21.7294 20.7891 21.6122 20.2969C21.495 19.7969 21.3427 19.3594 21.1552 18.9844C20.9677 18.6016 20.7411 18.2969 20.4755 18.0703C20.2098 17.8438 19.9012 17.7305 19.5497 17.7305C19.1591 17.7305 18.8192 17.8438 18.5302 18.0703C18.2411 18.2969 17.995 18.6016 17.7919 18.9844C17.5966 19.3672 17.4364 19.8086 17.3114 20.3086C17.1864 20.8086 17.0887 21.332 17.0184 21.8789C16.9559 22.4258 16.913 22.9766 16.8895 23.5312C16.8661 24.0859 16.8544 24.6094 16.8544 25.1016ZM25.9191 28.3711C25.9191 28.3398 25.9191 28.3008 25.9191 28.2539C25.9191 28.1992 25.9191 28.1445 25.9191 28.0898C25.9269 28.0352 25.9308 27.9883 25.9308 27.9492C25.9386 27.9023 25.9503 27.8711 25.9659 27.8555L32.9972 17.1094C33.0441 17.0391 33.0988 16.9883 33.1613 16.957C33.2238 16.918 33.2902 16.8906 33.3605 16.875C33.4308 16.8594 33.4972 16.8516 33.5597 16.8516C33.63 16.8438 33.6886 16.8398 33.7355 16.8398C33.798 16.8398 33.88 16.8438 33.9816 16.8516C34.0909 16.8516 34.1925 16.8633 34.2863 16.8867C34.3878 16.9023 34.4738 16.9297 34.5441 16.9688C34.6222 17.0078 34.6613 17.0664 34.6613 17.1445V26.3086C34.6613 26.457 34.6691 26.543 34.6847 26.5664C34.7081 26.5898 34.7745 26.6016 34.8839 26.6016H36.8409C36.9269 26.6016 37.0089 26.6094 37.087 26.625C37.1652 26.6406 37.2042 26.7031 37.2042 26.8125V28.5469C37.2042 28.7344 37.1261 28.8281 36.9698 28.8281H34.837C34.7511 28.8281 34.7003 28.8398 34.6847 28.8633C34.6691 28.8789 34.6613 28.9453 34.6613 29.0625V32.8711C34.6613 32.9102 34.6456 32.9727 34.6144 33.0586C34.5909 33.1445 34.5011 33.1875 34.3448 33.1875H32.2589C32.1495 33.1875 32.0831 33.1523 32.0597 33.082C32.0363 33.0117 32.0245 32.957 32.0245 32.918V29.1797C32.0245 29.0938 32.0206 29.0273 32.0128 28.9805C32.0128 28.9336 31.9972 28.8984 31.9659 28.875C31.9347 28.8516 31.8878 28.8398 31.8253 28.8398C31.7628 28.832 31.673 28.8281 31.5558 28.8281H26.4347C26.2863 28.8281 26.1613 28.7812 26.0597 28.6875C25.9659 28.5859 25.9191 28.4805 25.9191 28.3711ZM28.1339 26.4609C28.1339 26.5234 28.1573 26.5625 28.2042 26.5781C28.2589 26.5938 28.3605 26.6016 28.5089 26.6016H31.7667C31.8683 26.6016 31.9308 26.5781 31.9542 26.5312C31.9855 26.4844 32.0089 26.4297 32.0245 26.3672V21.668C32.0245 21.5586 32.0089 21.457 31.9777 21.3633C31.9542 21.2617 31.8995 21.2109 31.8136 21.2109C31.7511 21.2109 31.6886 21.2422 31.6261 21.3047C31.5714 21.3594 31.5206 21.4102 31.4738 21.457L28.2628 26.2617C28.2472 26.2773 28.2316 26.2969 28.2159 26.3203C28.2081 26.3359 28.1964 26.3555 28.1808 26.3789C28.1652 26.4102 28.1495 26.4375 28.1339 26.4609Z" fill="#1B3764"/>
</svg>
